<svg xmlns="http://www.w3.org/2000/svg" xmlns:xlink="http://www.w3.org/1999/xlink" width="500" zoomAndPan="magnify" viewBox="0 0 375 374.999991" height="500" preserveAspectRatio="xMidYMid meet" version="1.2"><defs><clipPath id="1f68e84d1f"><path d="M 84.308594 110.328125 L 234.308594 110.328125 L 234.308594 260.328125 L 84.308594 260.328125 Z M 84.308594 110.328125 "/></clipPath><clipPath id="4d8c262e67"><path d="M 120.578125 110.328125 L 270.578125 110.328125 L 270.578125 260.328125 L 120.578125 260.328125 Z M 120.578125 110.328125 "/></clipPath></defs><g id="5d1c3cf719"><g clip-rule="nonzero" clip-path="url(#1f68e84d1f)"><path style=" stroke:none;fill-rule:evenodd;fill:#ffffff;fill-opacity:1;" d="M 234.300781 110.960938 C 234.300781 110.960938 204.527344 111.171875 171.566406 111.347656 C 162.660156 111.394531 153.523438 111.433594 144.679688 111.464844 C 133.988281 111.507812 123.71875 111.542969 114.804688 111.558594 C 99.542969 111.585938 88.238281 111.578125 85.546875 111.574219 C 85.542969 114.613281 85.515625 128.570312 85.460938 146.808594 C 85.4375 154.214844 85.40625 162.332031 85.371094 170.707031 C 85.191406 212.296875 84.9375 260.328125 84.9375 260.328125 C 84.9375 260.328125 84.933594 260.332031 84.933594 260.332031 C 84.929688 260.332031 84.929688 260.328125 84.929688 260.328125 C 84.929688 260.328125 84.671875 212.296875 84.492188 170.707031 C 84.457031 162.332031 84.425781 154.214844 84.40625 146.808594 C 84.339844 126.132812 84.316406 110.960938 84.316406 110.960938 C 84.316406 110.617188 84.59375 110.34375 84.933594 110.34375 C 84.933594 110.34375 97.246094 110.328125 114.804688 110.359375 C 123.71875 110.375 133.988281 110.410156 144.679688 110.453125 C 153.523438 110.484375 162.660156 110.523438 171.566406 110.570312 C 204.527344 110.746094 234.300781 110.960938 234.300781 110.960938 Z M 234.300781 110.960938 "/></g><g style="fill:#ffffff;fill-opacity:1;"><g transform="translate(121.48237, 195.738339)"><path style="stroke:none" d="M 41.640625 -35.421875 C 41.773438 -35.285156 41.867188 -35.070312 41.921875 -34.78125 C 41.921875 -34.632812 41.882812 -34.5 41.8125 -34.375 C 41.738281 -34.257812 41.535156 -34.203125 41.203125 -34.203125 C 41.054688 -34.203125 40.898438 -34.210938 40.734375 -34.234375 C 40.566406 -34.265625 40.410156 -34.28125 40.265625 -34.28125 L 39.90625 -34.34375 C 37.257812 -34.675781 34.648438 -34.890625 32.078125 -34.984375 C 29.503906 -35.085938 27.015625 -35.140625 24.609375 -35.140625 L 20.921875 -35.0625 C 20.296875 -35.0625 19.65625 -35.070312 19 -35.09375 C 18.351562 -35.125 17.71875 -35.140625 17.09375 -35.140625 C 16.332031 -35.140625 15.6875 -35.039062 15.15625 -34.84375 C 14.625 -34.65625 14.210938 -34.25 13.921875 -33.625 L 12.625 -31.171875 C 9.5 -25.109375 6.441406 -18.878906 3.453125 -12.484375 C 0.472656 -6.085938 -1.90625 0.625 -3.6875 7.65625 C -5.070312 13.132812 -5.71875 18.160156 -5.625 22.734375 C -5.625 22.921875 -5.625 23.113281 -5.625 23.3125 C -5.625 23.738281 -5.613281 24.144531 -5.59375 24.53125 C -5.570312 24.914062 -5.414062 25.273438 -5.125 25.609375 C -4.6875 26.046875 -4.035156 26.3125 -3.171875 26.40625 C -2.984375 26.40625 -2.835938 26.476562 -2.734375 26.625 C -2.546875 26.820312 -2.425781 27.0625 -2.375 27.34375 C -2.332031 27.6875 -2.40625 27.914062 -2.59375 28.03125 C -2.789062 28.15625 -2.984375 28.21875 -3.171875 28.21875 L -3.25 28.21875 C -5.363281 28.21875 -6.707031 27.207031 -7.28125 25.1875 C -7.625 24.125 -7.78125 23.097656 -7.75 22.109375 C -7.726562 21.128906 -7.671875 20.15625 -7.578125 19.1875 L -7.5 18.609375 C -7.113281 14.285156 -6.390625 10.101562 -5.328125 6.0625 C -4.273438 2.019531 -3.015625 -1.898438 -1.546875 -5.703125 C -0.078125 -9.503906 1.398438 -13.253906 2.890625 -16.953125 L 3.3125 -17.890625 C 4.039062 -19.722656 4.835938 -21.515625 5.703125 -23.265625 C 6.566406 -25.023438 7.40625 -26.769531 8.21875 -28.5 C 8.65625 -29.320312 9.078125 -30.140625 9.484375 -30.953125 C 9.898438 -31.773438 10.296875 -32.59375 10.671875 -33.40625 C 10.773438 -33.644531 10.835938 -33.921875 10.859375 -34.234375 C 10.878906 -34.546875 10.695312 -35.039062 10.3125 -35.71875 L 10.171875 -35.859375 L 10.03125 -35.859375 C 8.96875 -35.859375 7.882812 -35.859375 6.78125 -35.859375 C 5.675781 -35.859375 4.570312 -35.859375 3.46875 -35.859375 C 2.351562 -35.910156 1.226562 -35.9375 0.09375 -35.9375 C -1.03125 -35.9375 -2.164062 -35.9375 -3.3125 -35.9375 C -6.875 -35.9375 -10.023438 -35.890625 -12.765625 -35.796875 C -13.347656 -35.742188 -13.925781 -35.71875 -14.5 -35.71875 C -15.082031 -35.71875 -15.660156 -35.71875 -16.234375 -35.71875 C -17.722656 -35.664062 -19.222656 -35.601562 -20.734375 -35.53125 C -22.253906 -35.457031 -23.710938 -35.253906 -25.109375 -34.921875 C -25.546875 -34.828125 -25.90625 -34.78125 -26.1875 -34.78125 C -26.53125 -34.78125 -26.820312 -34.851562 -27.0625 -35 C -27.207031 -35.144531 -27.328125 -35.382812 -27.421875 -35.71875 C -27.515625 -36.144531 -27.296875 -36.359375 -26.765625 -36.359375 C -26.671875 -36.359375 -26.476562 -36.347656 -26.1875 -36.328125 C -25.90625 -36.304688 -25.765625 -36.296875 -25.765625 -36.296875 L -25.546875 -36.296875 C -22.847656 -36.535156 -20.1875 -36.691406 -17.5625 -36.765625 C -14.945312 -36.835938 -12.601562 -36.875 -10.53125 -36.875 C -9.425781 -36.875 -8.304688 -36.875 -7.171875 -36.875 C -6.046875 -36.875 -4.929688 -36.875 -3.828125 -36.875 C -2.722656 -36.820312 -1.601562 -36.796875 -0.46875 -36.796875 C 0.664062 -36.796875 1.785156 -36.796875 2.890625 -36.796875 C 3.941406 -36.796875 5 -36.796875 6.0625 -36.796875 C 7.125 -36.796875 8.179688 -36.820312 9.234375 -36.875 C 10.242188 -36.914062 11.144531 -37.09375 11.9375 -37.40625 C 12.726562 -37.71875 13.34375 -38.359375 13.78125 -39.328125 C 15.851562 -43.554688 18.664062 -47.597656 22.21875 -51.453125 C 22.269531 -51.546875 22.367188 -51.664062 22.515625 -51.8125 C 22.660156 -52 22.816406 -52.1875 22.984375 -52.375 C 23.148438 -52.570312 23.351562 -52.671875 23.59375 -52.671875 C 23.832031 -52.671875 24.125 -52.523438 24.46875 -52.234375 C 24.894531 -51.847656 25.0625 -51.460938 24.96875 -51.078125 C 24.875 -50.703125 24.679688 -50.296875 24.390625 -49.859375 C 24.003906 -49.328125 23.640625 -48.820312 23.296875 -48.34375 C 22.960938 -47.863281 22.628906 -47.40625 22.296875 -46.96875 C 21.234375 -45.53125 20.171875 -44.03125 19.109375 -42.46875 C 18.054688 -40.90625 17.070312 -39.1875 16.15625 -37.3125 L 15.953125 -36.9375 L 22.375 -36.9375 C 27.46875 -36.9375 33.238281 -36.554688 39.6875 -35.796875 C 39.78125 -35.796875 39.945312 -35.796875 40.1875 -35.796875 C 40.425781 -35.796875 40.675781 -35.769531 40.9375 -35.71875 C 41.207031 -35.664062 41.441406 -35.566406 41.640625 -35.421875 Z M 41.640625 -35.421875 "/></g></g><g style="fill:#ffffff;fill-opacity:1;"><g transform="translate(133.889126, 195.738339)"><path style="stroke:none" d="M 31.53125 -11.1875 C 31.820312 -11.132812 31.988281 -11.0625 32.03125 -10.96875 C 32.082031 -10.820312 31.988281 -10.65625 31.75 -10.46875 C 30.882812 -9.976562 29.921875 -9.734375 28.859375 -9.734375 C 27.460938 -9.734375 26.039062 -10.09375 24.59375 -10.8125 C 23.15625 -11.539062 21.929688 -12.484375 20.921875 -13.640625 C 20.003906 -14.648438 19.304688 -15.394531 18.828125 -15.875 C 18.347656 -16.351562 17.84375 -16.59375 17.3125 -16.59375 C 16.976562 -16.59375 16.59375 -16.457031 16.15625 -16.1875 C 15.726562 -15.925781 15.203125 -15.582031 14.578125 -15.15625 C 12.265625 -13.519531 10.097656 -11.726562 8.078125 -9.78125 C 6.054688 -7.832031 4.109375 -5.867188 2.234375 -3.890625 L 0.4375 -2.09375 C 0.382812 -2 0.265625 -1.832031 0.078125 -1.59375 C -0.0664062 -1.394531 -0.222656 -1.210938 -0.390625 -1.046875 C -0.566406 -0.878906 -0.773438 -0.796875 -1.015625 -0.796875 C -1.296875 -0.796875 -1.65625 -0.941406 -2.09375 -1.234375 C -2.625 -1.609375 -2.863281 -2 -2.8125 -2.40625 C -2.757812 -2.820312 -2.6875 -3.222656 -2.59375 -3.609375 L -2.453125 -3.890625 C -0.523438 -10.003906 1.832031 -15.394531 4.625 -20.0625 L 4.765625 -20.203125 C 4.910156 -20.492188 5.101562 -20.78125 5.34375 -21.0625 C 5.582031 -21.351562 5.847656 -21.5 6.140625 -21.5 C 6.328125 -21.5 6.539062 -21.425781 6.78125 -21.28125 C 7.113281 -21.039062 7.332031 -20.800781 7.4375 -20.5625 C 7.53125 -20.320312 7.523438 -20.066406 7.421875 -19.796875 C 7.328125 -19.535156 7.210938 -19.285156 7.078125 -19.046875 C 6.972656 -18.753906 6.898438 -18.5625 6.859375 -18.46875 L 6.28125 -17.09375 C 5.988281 -16.375 5.6875 -15.640625 5.375 -14.890625 C 5.0625 -14.148438 4.738281 -13.421875 4.40625 -12.703125 C 4.207031 -12.222656 3.988281 -11.738281 3.75 -11.25 C 3.507812 -10.769531 3.296875 -10.289062 3.109375 -9.8125 C 3.054688 -9.8125 2.957031 -9.617188 2.8125 -9.234375 C 2.664062 -8.847656 2.53125 -8.4375 2.40625 -8 C 2.289062 -7.570312 2.28125 -7.285156 2.375 -7.140625 L 2.53125 -7 L 2.671875 -7 C 3.148438 -7.09375 3.554688 -7.285156 3.890625 -7.578125 C 4.234375 -7.867188 4.546875 -8.179688 4.828125 -8.515625 C 4.929688 -8.609375 5.039062 -8.710938 5.15625 -8.828125 C 5.28125 -8.953125 5.414062 -9.085938 5.5625 -9.234375 L 8.59375 -11.765625 C 9.550781 -12.578125 10.507812 -13.378906 11.46875 -14.171875 C 12.4375 -14.972656 13.398438 -15.757812 14.359375 -16.53125 C 15.660156 -17.488281 16.644531 -17.96875 17.3125 -17.96875 C 17.9375 -17.96875 18.550781 -17.691406 19.15625 -17.140625 C 19.757812 -16.585938 20.519531 -15.753906 21.4375 -14.640625 C 22.445312 -13.390625 23.613281 -12.414062 24.9375 -11.71875 C 26.257812 -11.019531 27.59375 -10.671875 28.9375 -10.671875 C 29.363281 -10.671875 29.796875 -10.722656 30.234375 -10.828125 C 30.378906 -10.828125 30.570312 -10.875 30.8125 -10.96875 C 31.144531 -11.113281 31.382812 -11.1875 31.53125 -11.1875 Z M 31.53125 -11.1875 "/></g></g><g style="fill:#ffffff;fill-opacity:1;"><g transform="translate(164.401071, 195.738339)"><path style="stroke:none" d="M 25.109375 -11.46875 C 25.253906 -11.375 25.328125 -11.160156 25.328125 -10.828125 C 25.328125 -10.484375 25.117188 -10.164062 24.703125 -9.875 C 24.296875 -9.59375 23.972656 -9.351562 23.734375 -9.15625 C 22.921875 -8.4375 22.082031 -7.738281 21.21875 -7.0625 C 20.351562 -6.394531 19.484375 -5.75 18.609375 -5.125 C 16.785156 -3.820312 14.847656 -2.664062 12.796875 -1.65625 C 10.753906 -0.644531 8.582031 0.144531 6.28125 0.71875 C 5.3125 1.007812 4.296875 1.15625 3.234375 1.15625 C 2.179688 1.15625 1.128906 0.675781 0.078125 -0.28125 C -0.984375 -1.195312 -1.570312 -2.171875 -1.6875 -3.203125 C -1.8125 -4.242188 -1.726562 -5.242188 -1.4375 -6.203125 C -0.570312 -9.472656 0.648438 -12.523438 2.234375 -15.359375 C 3.828125 -18.203125 5.726562 -20.828125 7.9375 -23.234375 C 8.175781 -23.566406 8.472656 -23.878906 8.828125 -24.171875 C 9.191406 -24.460938 9.6875 -24.367188 10.3125 -23.890625 C 10.988281 -23.359375 11.207031 -22.882812 10.96875 -22.46875 C 10.726562 -22.0625 10.507812 -21.691406 10.3125 -21.359375 C 8.78125 -18.898438 7.289062 -16.441406 5.84375 -13.984375 C 4.40625 -11.535156 3.128906 -8.96875 2.015625 -6.28125 C 1.828125 -5.800781 1.585938 -5.296875 1.296875 -4.765625 C 1.003906 -4.234375 0.859375 -3.691406 0.859375 -3.140625 C 0.859375 -2.585938 1.125 -2.046875 1.65625 -1.515625 C 2.519531 -0.597656 3.484375 -0.210938 4.546875 -0.359375 C 5.609375 -0.503906 6.59375 -0.671875 7.5 -0.859375 C 9.332031 -1.296875 11.039062 -1.945312 12.625 -2.8125 C 14.21875 -3.675781 15.734375 -4.640625 17.171875 -5.703125 C 17.367188 -5.847656 17.847656 -6.253906 18.609375 -6.921875 C 19.378906 -7.597656 20.222656 -8.320312 21.140625 -9.09375 C 22.054688 -9.863281 22.898438 -10.488281 23.671875 -10.96875 C 24.441406 -11.445312 24.921875 -11.613281 25.109375 -11.46875 Z M 13.5 -27.28125 C 12.382812 -27.175781 11.6875 -27.679688 11.40625 -28.796875 C 11.164062 -29.753906 11.257812 -30.4375 11.6875 -30.84375 C 12.125 -31.25 12.75 -31.476562 13.5625 -31.53125 C 14.144531 -31.582031 14.648438 -31.460938 15.078125 -31.171875 C 15.515625 -30.878906 15.828125 -30.347656 16.015625 -29.578125 C 16.066406 -28.804688 15.847656 -28.253906 15.359375 -27.921875 C 14.878906 -27.585938 14.257812 -27.375 13.5 -27.28125 Z M 13.5 -27.28125 "/></g></g><g style="fill:#ffffff;fill-opacity:1;"><g transform="translate(188.204709, 195.738339)"><path style="stroke:none" d="M 24.53125 -12.765625 L 24.609375 -12.484375 C 24.648438 -12.285156 24.441406 -12.140625 23.984375 -12.046875 C 23.535156 -11.953125 23.164062 -11.878906 22.875 -11.828125 C 22.582031 -11.785156 22.414062 -11.765625 22.375 -11.765625 C 21.695312 -11.566406 21.019531 -11.382812 20.34375 -11.21875 C 19.675781 -11.050781 19.003906 -10.847656 18.328125 -10.609375 C 15.773438 -9.835938 13.585938 -8.992188 11.765625 -8.078125 C 10.367188 -7.359375 9.066406 -6.515625 7.859375 -5.546875 C 6.660156 -4.585938 5.894531 -3.125 5.5625 -1.15625 C 4.882812 2.445312 2.742188 5.816406 -0.859375 8.953125 C -2.253906 10.148438 -3.675781 10.75 -5.125 10.75 C -6.132812 10.75 -7 10.4375 -7.71875 9.8125 C -8.675781 9 -9.15625 7.914062 -9.15625 6.5625 C -9.15625 5.21875 -8.65625 3.941406 -7.65625 2.734375 C -6.394531 1.148438 -4.910156 -0.21875 -3.203125 -1.375 C -1.503906 -2.53125 0.234375 -3.5625 2.015625 -4.46875 C 3.128906 -5.050781 3.734375 -5.75 3.828125 -6.5625 C 3.921875 -7.382812 3.535156 -8.441406 2.671875 -9.734375 C 2.335938 -10.171875 2.023438 -10.617188 1.734375 -11.078125 C 1.441406 -11.535156 1.148438 -12.003906 0.859375 -12.484375 L 0.359375 -13.34375 C -0.742188 -15.125 -0.742188 -16.566406 0.359375 -17.671875 C 4.066406 -21.429688 8.707031 -23.476562 14.28125 -23.8125 L 14.640625 -23.8125 C 15.898438 -23.8125 16.863281 -23.425781 17.53125 -22.65625 C 18.25 -21.84375 18.46875 -20.738281 18.1875 -19.34375 C 17.84375 -17.894531 16.953125 -16.640625 15.515625 -15.578125 C 15.421875 -15.484375 15.285156 -15.390625 15.109375 -15.296875 C 14.941406 -15.203125 14.765625 -15.15625 14.578125 -15.15625 C 14.378906 -15.15625 14.160156 -15.25 13.921875 -15.4375 C 13.640625 -15.632812 13.519531 -15.851562 13.5625 -16.09375 C 13.613281 -16.332031 13.710938 -16.617188 13.859375 -16.953125 C 14.140625 -17.484375 14.410156 -18 14.671875 -18.5 C 14.941406 -19.007812 15.222656 -19.503906 15.515625 -19.984375 C 15.660156 -20.273438 15.769531 -20.5625 15.84375 -20.84375 C 15.914062 -21.132812 15.828125 -21.472656 15.578125 -21.859375 C 15.296875 -22.296875 14.890625 -22.515625 14.359375 -22.515625 C 14.265625 -22.515625 14.097656 -22.488281 13.859375 -22.4375 L 13.640625 -22.4375 C 9.015625 -21.957031 5.3125 -20.203125 2.53125 -17.171875 C 1.613281 -16.160156 1.734375 -14.984375 2.890625 -13.640625 C 3.515625 -12.921875 4.09375 -12.125 4.625 -11.25 C 5.144531 -10.34375 5.644531 -9.585938 6.125 -8.984375 C 6.613281 -8.378906 7.242188 -8.078125 8.015625 -8.078125 C 8.441406 -8.078125 8.96875 -8.222656 9.59375 -8.515625 C 11.425781 -9.328125 13.289062 -10.046875 15.1875 -10.671875 C 17.082031 -11.296875 18.875 -11.851562 20.5625 -12.34375 C 20.851562 -12.4375 21.296875 -12.554688 21.890625 -12.703125 C 22.492188 -12.847656 23.0625 -12.921875 23.59375 -12.921875 C 23.882812 -12.921875 24.101562 -12.894531 24.25 -12.84375 C 24.394531 -12.789062 24.488281 -12.765625 24.53125 -12.765625 Z M -3.171875 8.796875 C 0.671875 6.773438 3.023438 3.023438 3.890625 -2.453125 L 3.46875 -2.671875 C 3.414062 -2.472656 3.148438 -2.242188 2.671875 -1.984375 C 2.191406 -1.722656 1.757812 -1.492188 1.375 -1.296875 C 0.894531 -1.054688 0.601562 -0.890625 0.5 -0.796875 C -0.65625 0.0234375 -1.6875 0.820312 -2.59375 1.59375 L -3.109375 2.015625 C -3.867188 2.691406 -4.671875 3.472656 -5.515625 4.359375 C -6.359375 5.253906 -6.828125 6.207031 -6.921875 7.21875 C -6.972656 7.84375 -6.832031 8.347656 -6.5 8.734375 C -6.15625 9.066406 -5.648438 9.234375 -4.984375 9.234375 C -4.597656 9.234375 -4.25 9.1875 -3.9375 9.09375 C -3.625 9 -3.367188 8.898438 -3.171875 8.796875 Z M -3.171875 8.796875 "/></g></g><g style="fill:#ffffff;fill-opacity:1;"><g transform="translate(210.782102, 195.738339)"><path style="stroke:none" d="M 44.15625 -11.046875 C 44.5 -10.367188 44.351562 -9.597656 43.71875 -8.734375 C 43.09375 -7.867188 42.539062 -7.144531 42.0625 -6.5625 C 41.78125 -6.28125 41.585938 -6.066406 41.484375 -5.921875 C 36.578125 0.378906 31.164062 4.566406 25.25 6.640625 C 24.820312 6.785156 24.363281 6.925781 23.875 7.0625 C 23.394531 7.207031 22.894531 7.28125 22.375 7.28125 C 21.3125 7.28125 20.320312 6.898438 19.40625 6.140625 C 18.445312 5.367188 17.882812 4.488281 17.71875 3.5 C 17.550781 2.507812 17.46875 1.460938 17.46875 0.359375 C 17.507812 -1.953125 17.925781 -4.082031 18.71875 -6.03125 C 19.519531 -7.976562 20.375 -9.890625 21.28125 -11.765625 L 21.859375 -12.984375 C 22.003906 -13.222656 22.148438 -13.582031 22.296875 -14.0625 C 22.441406 -14.550781 22.34375 -14.9375 22 -15.21875 C 21.757812 -15.414062 21.472656 -15.515625 21.140625 -15.515625 C 20.421875 -15.515625 19.566406 -15.140625 18.578125 -14.390625 C 17.585938 -13.648438 16.710938 -12.914062 15.953125 -12.1875 L 15.796875 -12.046875 C 15.222656 -11.566406 14.679688 -11.050781 14.171875 -10.5 C 13.671875 -9.945312 13.179688 -9.40625 12.703125 -8.875 C 12.410156 -8.582031 12.109375 -8.28125 11.796875 -7.96875 C 11.484375 -7.65625 11.179688 -7.332031 10.890625 -7 L 9.375 -5.484375 C 8.46875 -4.566406 7.554688 -3.640625 6.640625 -2.703125 C 5.722656 -1.765625 4.785156 -0.835938 3.828125 0.078125 C 3.535156 0.359375 3.21875 0.609375 2.875 0.828125 C 2.539062 1.046875 2.160156 1.15625 1.734375 1.15625 C 1.296875 1.15625 0.863281 1.007812 0.4375 0.71875 C -0.289062 0.289062 -0.703125 -0.222656 -0.796875 -0.828125 C -0.890625 -1.429688 -0.910156 -2.066406 -0.859375 -2.734375 C -0.722656 -5.671875 -0.1875 -8.460938 0.75 -11.109375 C 1.695312 -13.753906 2.675781 -16.351562 3.6875 -18.90625 C 4.0625 -19.769531 4.765625 -21.1875 5.796875 -23.15625 C 6.835938 -25.132812 8.066406 -27.410156 9.484375 -29.984375 C 10.898438 -32.554688 12.398438 -35.238281 13.984375 -38.03125 C 15.578125 -40.820312 17.109375 -43.488281 18.578125 -46.03125 C 20.046875 -48.582031 21.320312 -50.816406 22.40625 -52.734375 C 23.488281 -54.660156 24.269531 -56.0625 24.75 -56.9375 C 25.46875 -58.1875 26.210938 -59.421875 26.984375 -60.640625 C 27.753906 -61.867188 28.570312 -63.0625 29.4375 -64.21875 C 29.726562 -64.601562 30.132812 -65.179688 30.65625 -65.953125 C 31.1875 -66.722656 31.773438 -67.421875 32.421875 -68.046875 C 33.078125 -68.671875 33.71875 -68.9375 34.34375 -68.84375 C 35.019531 -68.789062 35.34375 -68.488281 35.3125 -67.9375 C 35.289062 -67.382812 35.132812 -66.769531 34.84375 -66.09375 C 34.46875 -65.28125 34.015625 -64.488281 33.484375 -63.71875 C 32.953125 -62.945312 32.613281 -62.460938 32.46875 -62.265625 C 31.457031 -60.972656 30.179688 -59.085938 28.640625 -56.609375 C 27.109375 -54.128906 25.425781 -51.300781 23.59375 -48.125 C 21.769531 -44.945312 19.90625 -41.648438 18 -38.234375 C 16.101562 -34.828125 14.3125 -31.5 12.625 -28.25 C 10.945312 -25 9.46875 -22.050781 8.1875 -19.40625 C 6.914062 -16.757812 6.015625 -14.644531 5.484375 -13.0625 C 4.910156 -11.425781 4.257812 -9.789062 3.53125 -8.15625 C 2.8125 -6.519531 2.285156 -4.835938 1.953125 -3.109375 C 1.847656 -2.484375 1.921875 -2.046875 2.171875 -1.796875 C 2.304688 -1.660156 2.492188 -1.59375 2.734375 -1.59375 C 2.984375 -1.59375 3.300781 -1.660156 3.6875 -1.796875 C 4.257812 -2.085938 4.757812 -2.445312 5.1875 -2.875 C 5.625 -3.3125 6.035156 -3.769531 6.421875 -4.25 C 6.566406 -4.445312 6.722656 -4.640625 6.890625 -4.828125 C 7.054688 -5.023438 7.238281 -5.21875 7.4375 -5.40625 C 7.769531 -5.75 8.101562 -6.097656 8.4375 -6.453125 C 8.78125 -6.816406 9.117188 -7.191406 9.453125 -7.578125 C 9.835938 -7.960938 10.234375 -8.367188 10.640625 -8.796875 C 11.046875 -9.234375 11.441406 -9.644531 11.828125 -10.03125 L 12.046875 -10.25 C 13.296875 -11.5 14.59375 -12.734375 15.9375 -13.953125 C 17.289062 -15.179688 18.738281 -16.28125 20.28125 -17.25 C 20.5625 -17.4375 20.882812 -17.640625 21.25 -17.859375 C 21.613281 -18.078125 22.007812 -18.1875 22.4375 -18.1875 C 22.914062 -18.1875 23.375 -18.015625 23.8125 -17.671875 C 25.007812 -16.804688 25.320312 -15.507812 24.75 -13.78125 C 24.3125 -12.332031 23.851562 -10.921875 23.375 -9.546875 C 22.894531 -8.179688 22.414062 -6.851562 21.9375 -5.5625 L 21.578125 -4.546875 C 21.191406 -3.484375 20.816406 -2.398438 20.453125 -1.296875 C 20.097656 -0.191406 19.847656 0.960938 19.703125 2.171875 C 19.597656 3.515625 19.835938 4.5 20.421875 5.125 C 20.992188 5.695312 21.835938 5.984375 22.953125 5.984375 C 23.191406 5.984375 23.453125 5.984375 23.734375 5.984375 C 24.984375 5.835938 26.125 5.535156 27.15625 5.078125 C 28.195312 4.628906 29.125 4.140625 29.9375 3.609375 C 32.632812 1.921875 35.066406 -0.144531 37.234375 -2.59375 C 37.859375 -3.269531 38.4375 -3.992188 38.96875 -4.765625 C 39.5 -5.535156 40.003906 -6.304688 40.484375 -7.078125 C 40.816406 -7.597656 41.148438 -8.125 41.484375 -8.65625 C 41.828125 -9.1875 42.164062 -9.71875 42.5 -10.25 C 42.644531 -10.394531 42.847656 -10.585938 43.109375 -10.828125 C 43.378906 -11.066406 43.632812 -11.1875 43.875 -11.1875 C 43.96875 -11.1875 44.0625 -11.140625 44.15625 -11.046875 Z M 44.15625 -11.046875 "/></g></g><g style="fill:#ffffff;fill-opacity:1;"><g transform="translate(133.743512, 218.868852)"><path style="stroke:none" d="M 1.1875 0 L 1.1875 -8.140625 L 2.15625 -8.140625 L 6.65625 -1.765625 L 6.65625 -8.140625 L 7.65625 -8.140625 L 7.65625 0 L 6.703125 0 L 2.203125 -6.375 L 2.203125 0 Z M 1.1875 0 "/></g></g><g style="fill:#ffffff;fill-opacity:1;"><g transform="translate(145.476349, 218.868852)"><path style="stroke:none" d="M 0.515625 0 L 0.515625 -0.96875 L 1.671875 -0.96875 C 2.328125 -0.96875 2.773438 -1.128906 3.015625 -1.453125 C 3.265625 -1.773438 3.390625 -2.207031 3.390625 -2.75 L 3.390625 -8.140625 L 4.421875 -8.140625 L 4.421875 -2.6875 C 4.421875 -1.875 4.195312 -1.222656 3.75 -0.734375 C 3.300781 -0.242188 2.609375 0 1.671875 0 Z M 0.515625 0 "/></g></g><g style="fill:#ffffff;fill-opacity:1;"><g transform="translate(153.954166, 218.868852)"><path style="stroke:none" d="M 4.234375 0.140625 C 3.242188 0.140625 2.472656 -0.164062 1.921875 -0.78125 C 1.367188 -1.394531 1.09375 -2.238281 1.09375 -3.3125 L 1.09375 -8.140625 L 2.109375 -8.140625 L 2.109375 -3.390625 C 2.109375 -2.554688 2.289062 -1.925781 2.65625 -1.5 C 3.019531 -1.070312 3.546875 -0.859375 4.234375 -0.859375 C 5.648438 -0.859375 6.359375 -1.703125 6.359375 -3.390625 L 6.359375 -8.140625 L 7.375 -8.140625 L 7.375 -3.3125 C 7.375 -2.238281 7.09375 -1.394531 6.53125 -0.78125 C 5.976562 -0.164062 5.210938 0.140625 4.234375 0.140625 Z M 4.234375 0.140625 "/></g></g><g style="fill:#ffffff;fill-opacity:1;"><g transform="translate(165.326617, 218.868852)"><path style="stroke:none" d="M 4.8125 0.15625 C 4.21875 0.15625 3.664062 0.0507812 3.15625 -0.15625 C 2.65625 -0.375 2.21875 -0.671875 1.84375 -1.046875 C 1.476562 -1.421875 1.191406 -1.863281 0.984375 -2.375 C 0.773438 -2.894531 0.671875 -3.457031 0.671875 -4.0625 C 0.671875 -4.675781 0.769531 -5.238281 0.96875 -5.75 C 1.175781 -6.257812 1.460938 -6.703125 1.828125 -7.078125 C 2.203125 -7.460938 2.640625 -7.757812 3.140625 -7.96875 C 3.640625 -8.175781 4.191406 -8.28125 4.796875 -8.28125 C 5.410156 -8.28125 5.976562 -8.164062 6.5 -7.9375 C 7.03125 -7.71875 7.488281 -7.40625 7.875 -7 C 8.257812 -6.601562 8.535156 -6.140625 8.703125 -5.609375 L 7.59375 -5.609375 C 7.332031 -6.128906 6.960938 -6.535156 6.484375 -6.828125 C 6.003906 -7.117188 5.453125 -7.265625 4.828125 -7.265625 C 4.222656 -7.265625 3.6875 -7.128906 3.21875 -6.859375 C 2.75 -6.585938 2.378906 -6.210938 2.109375 -5.734375 C 1.847656 -5.253906 1.71875 -4.695312 1.71875 -4.0625 C 1.71875 -3.4375 1.847656 -2.882812 2.109375 -2.40625 C 2.378906 -1.925781 2.75 -1.550781 3.21875 -1.28125 C 3.6875 -1.007812 4.226562 -0.875 4.84375 -0.875 C 5.382812 -0.875 5.867188 -0.976562 6.296875 -1.1875 C 6.722656 -1.40625 7.070312 -1.707031 7.34375 -2.09375 C 7.613281 -2.476562 7.78125 -2.925781 7.84375 -3.4375 L 4.53125 -3.4375 L 4.53125 -4.421875 L 8.953125 -4.421875 C 8.960938 -3.523438 8.796875 -2.734375 8.453125 -2.046875 C 8.109375 -1.359375 7.625 -0.816406 7 -0.421875 C 6.375 -0.0351562 5.644531 0.15625 4.8125 0.15625 Z M 4.8125 0.15625 "/></g></g><g style="fill:#ffffff;fill-opacity:1;"><g transform="translate(177.815072, 218.868852)"><path style="stroke:none" d="M 4.234375 0.140625 C 3.242188 0.140625 2.472656 -0.164062 1.921875 -0.78125 C 1.367188 -1.394531 1.09375 -2.238281 1.09375 -3.3125 L 1.09375 -8.140625 L 2.109375 -8.140625 L 2.109375 -3.390625 C 2.109375 -2.554688 2.289062 -1.925781 2.65625 -1.5 C 3.019531 -1.070312 3.546875 -0.859375 4.234375 -0.859375 C 5.648438 -0.859375 6.359375 -1.703125 6.359375 -3.390625 L 6.359375 -8.140625 L 7.375 -8.140625 L 7.375 -3.3125 C 7.375 -2.238281 7.09375 -1.394531 6.53125 -0.78125 C 5.976562 -0.164062 5.210938 0.140625 4.234375 0.140625 Z M 4.234375 0.140625 "/></g></g><g style="fill:#ffffff;fill-opacity:1;"><g transform="translate(189.187524, 218.868852)"><path style="stroke:none" d="M 1.1875 0 L 1.1875 -8.140625 L 2.15625 -8.140625 L 6.65625 -1.765625 L 6.65625 -8.140625 L 7.65625 -8.140625 L 7.65625 0 L 6.703125 0 L 2.203125 -6.375 L 2.203125 0 Z M 1.1875 0 "/></g></g><g style="fill:#ffffff;fill-opacity:1;"><g transform="translate(200.92036, 218.868852)"><path style="stroke:none" d="M 0.203125 0 L 3.546875 -8.140625 L 4.5 -8.140625 L 7.84375 0 L 6.765625 0 L 6 -1.84375 L 2.03125 -1.84375 L 1.296875 0 Z M 2.421875 -2.796875 L 5.609375 -2.796875 L 4.015625 -6.703125 Z M 2.421875 -2.796875 "/></g></g><g clip-rule="nonzero" clip-path="url(#4d8c262e67)"><path style=" stroke:none;fill-rule:evenodd;fill:#ffffff;fill-opacity:1;" d="M 120.585938 259.699219 C 120.585938 259.699219 150.355469 259.488281 183.320312 259.3125 C 192.222656 259.265625 201.359375 259.226562 210.207031 259.191406 C 220.898438 259.152344 231.164062 259.117188 240.078125 259.097656 C 255.34375 259.070312 266.644531 259.078125 269.335938 259.082031 C 269.34375 256.046875 269.367188 242.089844 269.425781 223.851562 C 269.449219 216.441406 269.476562 208.328125 269.515625 199.953125 C 269.691406 158.363281 269.949219 110.332031 269.949219 110.332031 C 269.949219 110.328125 269.949219 110.328125 269.953125 110.328125 C 269.953125 110.328125 269.957031 110.328125 269.957031 110.332031 C 269.957031 110.332031 270.210938 158.363281 270.390625 199.953125 C 270.425781 208.328125 270.457031 216.441406 270.480469 223.851562 C 270.542969 244.523438 270.570312 259.699219 270.570312 259.699219 C 270.570312 260.039062 270.292969 260.316406 269.953125 260.316406 C 269.953125 260.316406 257.636719 260.332031 240.078125 260.296875 C 231.164062 260.28125 220.898438 260.246094 210.207031 260.207031 C 201.359375 260.171875 192.222656 260.132812 183.320312 260.085938 C 150.355469 259.910156 120.585938 259.699219 120.585938 259.699219 Z M 120.585938 259.699219 "/></g></g></svg>